<mxfile host="app.diagrams.net" agent="Mozilla/5.0 (Windows NT 10.0; Win64; x64) AppleWebKit/537.36 (KHTML, like Gecko) Chrome/131.0.0.0 Safari/537.36" version="25.0.3">
  <diagram name="Page-1" id="yyCCO4VWzeFxbPXDqyBv">
    <mxGraphModel dx="1235" dy="709" grid="1" gridSize="10" guides="1" tooltips="1" connect="1" arrows="1" fold="1" page="1" pageScale="1" pageWidth="850" pageHeight="1100" math="0" shadow="0">
      <root>
        <mxCell id="0" />
        <mxCell id="1" parent="0" />
        <mxCell id="RrSmWqGjQjk_nBggUwKd-27" value="Halaman Pengumuman" style="shape=umlLifeline;perimeter=lifelinePerimeter;whiteSpace=wrap;html=1;container=0;dropTarget=0;collapsible=0;recursiveResize=0;outlineConnect=0;portConstraint=eastwest;newEdgeStyle={&quot;edgeStyle&quot;:&quot;elbowEdgeStyle&quot;,&quot;elbow&quot;:&quot;vertical&quot;,&quot;curved&quot;:0,&quot;rounded&quot;:0};" vertex="1" parent="1">
          <mxGeometry x="311" y="80" width="100" height="370" as="geometry" />
        </mxCell>
        <mxCell id="RrSmWqGjQjk_nBggUwKd-28" value="" style="html=1;points=[];perimeter=orthogonalPerimeter;outlineConnect=0;targetShapes=umlLifeline;portConstraint=eastwest;newEdgeStyle={&quot;edgeStyle&quot;:&quot;elbowEdgeStyle&quot;,&quot;elbow&quot;:&quot;vertical&quot;,&quot;curved&quot;:0,&quot;rounded&quot;:0};" vertex="1" parent="RrSmWqGjQjk_nBggUwKd-27">
          <mxGeometry x="45" y="80" width="10" height="250" as="geometry" />
        </mxCell>
        <mxCell id="RrSmWqGjQjk_nBggUwKd-29" value="Popup Delete Pengumuman" style="shape=umlLifeline;perimeter=lifelinePerimeter;whiteSpace=wrap;html=1;container=0;dropTarget=0;collapsible=0;recursiveResize=0;outlineConnect=0;portConstraint=eastwest;newEdgeStyle={&quot;edgeStyle&quot;:&quot;elbowEdgeStyle&quot;,&quot;elbow&quot;:&quot;vertical&quot;,&quot;curved&quot;:0,&quot;rounded&quot;:0};movable=1;resizable=1;rotatable=1;deletable=1;editable=1;locked=0;connectable=1;" vertex="1" parent="1">
          <mxGeometry x="491" y="80" width="100" height="370" as="geometry" />
        </mxCell>
        <mxCell id="RrSmWqGjQjk_nBggUwKd-30" value="" style="html=1;points=[];perimeter=orthogonalPerimeter;outlineConnect=0;targetShapes=umlLifeline;portConstraint=eastwest;newEdgeStyle={&quot;edgeStyle&quot;:&quot;elbowEdgeStyle&quot;,&quot;elbow&quot;:&quot;vertical&quot;,&quot;curved&quot;:0,&quot;rounded&quot;:0};" vertex="1" parent="RrSmWqGjQjk_nBggUwKd-29">
          <mxGeometry x="45" y="90" width="10" height="220" as="geometry" />
        </mxCell>
        <mxCell id="RrSmWqGjQjk_nBggUwKd-31" value="" style="html=1;points=[[0,0,0,0,5],[0,1,0,0,-5],[1,0,0,0,5],[1,1,0,0,-5]];perimeter=orthogonalPerimeter;outlineConnect=0;targetShapes=umlLifeline;portConstraint=eastwest;newEdgeStyle={&quot;curved&quot;:0,&quot;rounded&quot;:0};" vertex="1" parent="RrSmWqGjQjk_nBggUwKd-29">
          <mxGeometry x="55" y="195" width="10" height="30" as="geometry" />
        </mxCell>
        <mxCell id="RrSmWqGjQjk_nBggUwKd-32" value="DeletePengumuman()" style="html=1;verticalAlign=bottom;endArrow=block;edgeStyle=elbowEdgeStyle;elbow=vertical;curved=0;rounded=0;" edge="1" parent="1">
          <mxGeometry relative="1" as="geometry">
            <mxPoint x="398" y="171" as="sourcePoint" />
            <Array as="points">
              <mxPoint x="368" y="171" />
            </Array>
            <mxPoint x="536" y="171" as="targetPoint" />
          </mxGeometry>
        </mxCell>
        <mxCell id="RrSmWqGjQjk_nBggUwKd-33" value="return" style="html=1;verticalAlign=bottom;endArrow=open;dashed=1;endSize=8;edgeStyle=elbowEdgeStyle;elbow=vertical;curved=0;rounded=0;" edge="1" parent="1" source="RrSmWqGjQjk_nBggUwKd-30" target="RrSmWqGjQjk_nBggUwKd-28">
          <mxGeometry relative="1" as="geometry">
            <mxPoint x="466" y="245" as="targetPoint" />
            <Array as="points">
              <mxPoint x="461" y="320" />
            </Array>
          </mxGeometry>
        </mxCell>
        <mxCell id="RrSmWqGjQjk_nBggUwKd-34" value="Koordinator" style="shape=umlActor;verticalLabelPosition=bottom;verticalAlign=top;html=1;outlineConnect=0;" vertex="1" parent="1">
          <mxGeometry x="28" y="110" width="30" height="60" as="geometry" />
        </mxCell>
        <mxCell id="RrSmWqGjQjk_nBggUwKd-35" value="" style="group" vertex="1" connectable="0" parent="1">
          <mxGeometry x="641" y="60" width="70" height="390" as="geometry" />
        </mxCell>
        <mxCell id="RrSmWqGjQjk_nBggUwKd-36" value="Control Object" style="ellipse;shape=umlControl;whiteSpace=wrap;html=1;" vertex="1" parent="RrSmWqGjQjk_nBggUwKd-35">
          <mxGeometry width="70" height="84.32432432432432" as="geometry" />
        </mxCell>
        <mxCell id="RrSmWqGjQjk_nBggUwKd-37" value="" style="group" vertex="1" connectable="0" parent="RrSmWqGjQjk_nBggUwKd-35">
          <mxGeometry x="30" y="84.32432432432432" width="10" height="305.6756756756756" as="geometry" />
        </mxCell>
        <mxCell id="RrSmWqGjQjk_nBggUwKd-38" value="" style="group" vertex="1" connectable="0" parent="RrSmWqGjQjk_nBggUwKd-37">
          <mxGeometry y="42.16216216216216" width="10" height="263.5135135135135" as="geometry" />
        </mxCell>
        <mxCell id="RrSmWqGjQjk_nBggUwKd-39" value="" style="html=1;points=[[0,0,0,0,5],[0,1,0,0,-5],[1,0,0,0,5],[1,1,0,0,-5]];perimeter=orthogonalPerimeter;outlineConnect=0;targetShapes=umlLifeline;portConstraint=eastwest;newEdgeStyle={&quot;curved&quot;:0,&quot;rounded&quot;:0};" vertex="1" parent="RrSmWqGjQjk_nBggUwKd-38">
          <mxGeometry width="10" height="180" as="geometry" />
        </mxCell>
        <mxCell id="RrSmWqGjQjk_nBggUwKd-40" value="" style="endArrow=none;dashed=1;html=1;rounded=0;" edge="1" parent="RrSmWqGjQjk_nBggUwKd-38" target="RrSmWqGjQjk_nBggUwKd-39">
          <mxGeometry width="50" height="50" relative="1" as="geometry">
            <mxPoint x="5" y="263.5135135135135" as="sourcePoint" />
            <mxPoint x="4.5" y="221.35135135135133" as="targetPoint" />
          </mxGeometry>
        </mxCell>
        <mxCell id="RrSmWqGjQjk_nBggUwKd-41" value="" style="endArrow=none;dashed=1;html=1;rounded=0;" edge="1" parent="RrSmWqGjQjk_nBggUwKd-37">
          <mxGeometry width="50" height="50" relative="1" as="geometry">
            <mxPoint x="5" y="42.16216216216216" as="sourcePoint" />
            <mxPoint x="4.5" as="targetPoint" />
          </mxGeometry>
        </mxCell>
        <mxCell id="RrSmWqGjQjk_nBggUwKd-42" value="validasi()" style="html=1;verticalAlign=bottom;endArrow=block;edgeStyle=elbowEdgeStyle;elbow=vertical;curved=0;rounded=0;" edge="1" parent="1">
          <mxGeometry relative="1" as="geometry">
            <mxPoint x="546" y="190" as="sourcePoint" />
            <Array as="points">
              <mxPoint x="619" y="190" />
            </Array>
            <mxPoint x="671" y="190" as="targetPoint" />
          </mxGeometry>
        </mxCell>
        <mxCell id="RrSmWqGjQjk_nBggUwKd-43" value="deleteData()" style="html=1;verticalAlign=bottom;endArrow=block;edgeStyle=elbowEdgeStyle;elbow=vertical;curved=0;rounded=0;" edge="1" parent="1" source="RrSmWqGjQjk_nBggUwKd-39" target="RrSmWqGjQjk_nBggUwKd-48">
          <mxGeometry relative="1" as="geometry">
            <mxPoint x="711" y="250" as="sourcePoint" />
            <Array as="points">
              <mxPoint x="764" y="250" />
            </Array>
            <mxPoint x="811" y="250" as="targetPoint" />
          </mxGeometry>
        </mxCell>
        <mxCell id="RrSmWqGjQjk_nBggUwKd-44" value="Database" style="ellipse;shape=umlEntity;whiteSpace=wrap;html=1;" vertex="1" parent="1">
          <mxGeometry x="761" y="60" width="80" height="80" as="geometry" />
        </mxCell>
        <mxCell id="RrSmWqGjQjk_nBggUwKd-45" value="" style="endArrow=none;dashed=1;html=1;rounded=0;" edge="1" parent="1">
          <mxGeometry width="50" height="50" relative="1" as="geometry">
            <mxPoint x="801" y="230" as="sourcePoint" />
            <mxPoint x="800.5" y="140" as="targetPoint" />
          </mxGeometry>
        </mxCell>
        <mxCell id="RrSmWqGjQjk_nBggUwKd-46" value="validasiGagal()" style="html=1;verticalAlign=bottom;endArrow=block;edgeStyle=elbowEdgeStyle;elbow=horizontal;curved=0;rounded=0;" edge="1" parent="1" target="RrSmWqGjQjk_nBggUwKd-31">
          <mxGeometry relative="1" as="geometry">
            <mxPoint x="671" y="290" as="sourcePoint" />
            <Array as="points">
              <mxPoint x="631" y="290" />
            </Array>
            <mxPoint x="580.9285714285714" y="290" as="targetPoint" />
          </mxGeometry>
        </mxCell>
        <mxCell id="RrSmWqGjQjk_nBggUwKd-47" value="" style="endArrow=none;dashed=1;html=1;rounded=0;" edge="1" parent="1" target="RrSmWqGjQjk_nBggUwKd-48">
          <mxGeometry width="50" height="50" relative="1" as="geometry">
            <mxPoint x="801" y="450" as="sourcePoint" />
            <mxPoint x="800.5" y="390" as="targetPoint" />
          </mxGeometry>
        </mxCell>
        <mxCell id="RrSmWqGjQjk_nBggUwKd-48" value="" style="html=1;points=[[0,0,0,0,5],[0,1,0,0,-5],[1,0,0,0,5],[1,1,0,0,-5]];perimeter=orthogonalPerimeter;outlineConnect=0;targetShapes=umlLifeline;portConstraint=eastwest;newEdgeStyle={&quot;curved&quot;:0,&quot;rounded&quot;:0};" vertex="1" parent="1">
          <mxGeometry x="796" y="230" width="10" height="90" as="geometry" />
        </mxCell>
        <mxCell id="RrSmWqGjQjk_nBggUwKd-49" value="SidebarKoor()" style="html=1;verticalAlign=bottom;startArrow=oval;endArrow=block;startSize=8;edgeStyle=elbowEdgeStyle;elbow=vertical;curved=0;rounded=0;" edge="1" parent="1" target="RrSmWqGjQjk_nBggUwKd-51">
          <mxGeometry relative="1" as="geometry">
            <mxPoint x="68" y="150.25" as="sourcePoint" />
            <mxPoint x="188.00000000000023" y="150.25" as="targetPoint" />
          </mxGeometry>
        </mxCell>
        <mxCell id="RrSmWqGjQjk_nBggUwKd-50" value="Halaman SideBar Koordinator" style="shape=umlLifeline;perimeter=lifelinePerimeter;whiteSpace=wrap;html=1;container=0;dropTarget=0;collapsible=0;recursiveResize=0;outlineConnect=0;portConstraint=eastwest;newEdgeStyle={&quot;edgeStyle&quot;:&quot;elbowEdgeStyle&quot;,&quot;elbow&quot;:&quot;vertical&quot;,&quot;curved&quot;:0,&quot;rounded&quot;:0};" vertex="1" parent="1">
          <mxGeometry x="173" y="80" width="100" height="370" as="geometry" />
        </mxCell>
        <mxCell id="RrSmWqGjQjk_nBggUwKd-51" value="" style="html=1;points=[];perimeter=orthogonalPerimeter;outlineConnect=0;targetShapes=umlLifeline;portConstraint=eastwest;newEdgeStyle={&quot;edgeStyle&quot;:&quot;elbowEdgeStyle&quot;,&quot;elbow&quot;:&quot;vertical&quot;,&quot;curved&quot;:0,&quot;rounded&quot;:0};" vertex="1" parent="RrSmWqGjQjk_nBggUwKd-50">
          <mxGeometry x="45" y="60" width="10" height="290" as="geometry" />
        </mxCell>
        <mxCell id="RrSmWqGjQjk_nBggUwKd-52" value="Pengumuman()" style="html=1;verticalAlign=bottom;endArrow=block;edgeStyle=elbowEdgeStyle;elbow=vertical;curved=0;rounded=0;" edge="1" parent="1" target="RrSmWqGjQjk_nBggUwKd-28">
          <mxGeometry x="0.236" relative="1" as="geometry">
            <mxPoint x="278" y="160" as="sourcePoint" />
            <Array as="points">
              <mxPoint x="228" y="160" />
            </Array>
            <mxPoint x="348" y="160" as="targetPoint" />
            <mxPoint as="offset" />
          </mxGeometry>
        </mxCell>
      </root>
    </mxGraphModel>
  </diagram>
</mxfile>
